Coordinates
version=1
nRows=32
nColumns=22
inDegrees=yes

Units are S.I. units (second, meters, Newtons, ...)
If the header above contains a line with 'inDegrees', this indicates whether rotational values are in degrees (yes) or radians (no).

endheader
time	pelvis_tilt	pelvis_list	pelvis_rotation	pelvis_tx	pelvis_ty	pelvis_tz	hip_flexion_r	hip_adduction_r	hip_rotation_r	knee_angle_r	ankle_angle_r	subtalar_angle_r	hip_flexion_l	hip_adduction_l	hip_rotation_l	knee_angle_l	ankle_angle_l	subtalar_angle_l	lumbar_extension	lumbar_bending	lumbar_rotation
      4.09000000	      0.45952028	     -8.81255720	     82.31266623	      0.34931417	      0.88117158	     -0.20053718	     16.42532316	      0.97159630	     -1.57425698	    -15.60939840	     11.19689615	     -2.67740629	     21.82503505	     -9.25845557	     -3.61461156	    -23.44399200	     11.29188723	      2.63316127	     -1.57171364	      1.95160053	     14.35213241
      4.10000000	      0.56372955	     -8.95140694	     81.98247677	      0.34922609	      0.88063093	     -0.20256038	     16.52125060	      1.13682450	     -1.26219119	    -15.76127990	     11.34904026	     -2.62858141	     21.42790093	     -9.35768724	     -3.49475600	    -22.61113712	     10.67652011	      2.55621890	     -1.36531421	      2.05804870	     14.14437530
      4.11000000	      0.65090417	     -9.03278160	     81.61337401	      0.34913430	      0.88014948	     -0.20458519	     16.58528439	      1.27970328	     -0.94342716	    -15.96260668	     11.55459264	     -2.54425462	     20.95565716	     -9.45171518	     -3.55325397	    -21.89315170	     10.32273371	      2.38512064	     -1.22003923	      2.13044326	     13.98861254
      4.12000000	      0.75997882	     -9.12646485	     81.26971357	      0.34897415	      0.87966302	     -0.20654038	     16.64621521	      1.44332909	     -0.62329514	    -16.13291776	     11.71932144	     -2.48574279	     20.54137836	     -9.57472662	     -3.72809778	    -21.33740115	     10.14961636	      2.22987280	     -1.06708732	      2.22371808	     13.78400114
      4.13000000	      0.85993127	     -9.19280134	     80.93644619	      0.34874982	      0.87925150	     -0.20846276	     16.68396196	      1.58750470	     -0.32440249	    -16.30962791	     11.88989200	     -2.43136809	     20.11642461	     -9.68903839	     -4.02294091	    -20.87176724	     10.18384389	      2.05521808	     -0.94412225	      2.29639334	     13.56972923
      4.14000000	      0.92878648	     -9.24385075	     80.62314362	      0.34846020	      0.87894493	     -0.21034532	     16.69954431	      1.68962683	     -0.04264637	    -16.46063918	     12.03400818	     -2.38118752	     19.68724866	     -9.76897175	     -4.39919603	    -20.44060081	     10.30643803	      1.88450145	     -0.83400479	      2.32269203	     13.32917901
      4.15000000	      0.95473454	     -9.27685538	     80.33127965	      0.34810261	      0.87877139	     -0.21218338	     16.68892250	      1.73720509	      0.22837379	    -16.58009613	     12.15602163	     -2.33457487	     19.24972622	     -9.80105076	     -4.83680339	    -20.01043415	     10.45734697	      1.75085839	     -0.73652527	      2.28924842	     13.06523409
      4.16000000	      0.93044857	     -9.29548551	     80.06761673	      0.34767295	      0.87874186	     -0.21399478	     16.64619692	      1.71989727	      0.47503035	    -16.64732287	     12.24941909	     -2.28798167	     18.79790041	     -9.77597596	     -5.30560907	    -19.54490661	     10.57938129	      1.68699462	     -0.64300932	      2.18938578	     12.77610717
      4.17000000	      0.85914546	     -9.30497143	     79.83894337	      0.34715522	      0.87885094	     -0.21577988	     16.57172544	      1.63883951	      0.69998074	    -16.65472270	     12.30949284	     -2.24051378	     18.33723489	     -9.69470290	     -5.77412532	    -19.03179340	     10.64528657	      1.72165814	     -0.54639494	      2.03124134	     12.45483219
      4.18000000	      0.76702131	     -9.29344108	     79.64799003	      0.34656416	      0.87910804	     -0.21757380	     16.43914604	      1.51613345	      0.87114598	    -16.58938257	     12.35583439	     -2.17390830	     17.84292389	     -9.58320788	     -6.23854594	    -18.45904727	     10.63621785	      1.87400738	     -0.46131986	      1.84263555	     12.11625405
      4.19000000	      0.64278331	     -9.29548491	     79.49417687	      0.34587161	      0.87943302	     -0.21935236	     16.28839838	      1.34702993	      1.03008279	    -16.45242751	     12.36259004	     -2.10559035	     17.35548971	     -9.42514266	     -6.64709970	    -17.82764092	     10.57248483	      2.10732545	     -0.34571040	      1.62386066	     11.74649335
      4.20000000	      0.51542835	     -9.29479283	     79.37762890	      0.34508478	      0.87982953	     -0.22114090	     16.08219697	      1.15860296	      1.17531269	    -16.21944978	     12.33439169	     -2.01248243	     16.85424173	     -9.24545461	     -7.00083194	    -17.14756020	     10.48620280	      2.41974237	     -0.22339481	      1.40622882	     11.35032184
      4.21000000	      0.38199983	     -9.31747194	     79.28515758	      0.34420749	      0.88023163	     -0.22293296	     15.86915428	      0.95281809	      1.28811491	    -15.92690902	     12.28514162	     -1.92600251	     16.35971263	     -9.04286650	     -7.29726794	    -16.41037581	     10.33808244	      2.70263613	     -0.06154266	      1.19619091	     10.94927975
      4.22000000	      0.25718194	     -9.35734458	     79.21343967	      0.34325662	      0.88061709	     -0.22474100	     15.63905686	      0.74707987	      1.37088040	    -15.57556509	     12.21720946	     -1.84339917	     15.86184892	     -8.83105887	     -7.55288298	    -15.62076568	     10.15685791	      2.94215537	      0.12954513	      1.00895278	     10.55213532
      4.23000000	      0.15676784	     -9.40299026	     79.15144390	      0.34226082	      0.88097797	     -0.22655675	     15.37123257	      0.56151619	      1.45883797	    -15.15338544	     12.13083045	     -1.74676694	     15.34904331	     -8.62911621	     -7.79263774	    -14.79428126	      9.99595603	      3.16134661	      0.33131231	      0.85895386	     10.16516044
      4.24000000	      0.07604904	     -9.45590111	     79.08278351	      0.34124852	      0.88128295	     -0.22838019	     15.07756382	      0.39606527	      1.56081626	    -14.67676381	     12.03500489	     -1.64085982	     14.81856006	     -8.43672288	     -8.02257011	    -13.93370895	      9.85219997	      3.35275029	      0.54691269	      0.74274234	      9.80283680
      4.25000000	      0.01701770	     -9.51983983	     79.00549027	      0.34022413	      0.88151009	     -0.23019650	     14.77885045	      0.25337046	      1.65781017	    -14.17570582	     11.93490086	     -1.54144767	     14.27363713	     -8.25988479	     -8.27772678	    -13.03413908	      9.70360344	      3.50697609	      0.77747990	      0.66232669	      9.48369686
      4.26000000	     -0.01897564	     -9.57937652	     78.91027690	      0.33922343	      0.88166280	     -0.23200332	     14.45585739	      0.13755313	      1.78901478	    -13.64561372	     11.84484700	     -1.43475257	     13.69837178	     -8.10221983	     -8.55363410	    -12.10564814	      9.59223489	      3.65366732	      1.00213143	      0.61260778	      9.20482852
      4.27000000	     -0.04021741	     -9.63867680	     78.78853327	      0.33824463	      0.88173686	     -0.23378613	     14.13170191	      0.03922197	      1.92007019	    -13.11166734	     11.75454577	     -1.33817580	     13.10492754	     -7.95977436	     -8.87149527	    -11.15983486	      9.47008019	      3.78999614	      1.22421762	      0.58898654	      8.98915820
      4.28000000	     -0.04072090	     -9.67424255	     78.64753350	      0.33731570	      0.88175318	     -0.23554803	     13.77529119	     -0.03659583	      2.09120904	    -12.57017241	     11.69571166	     -1.23135454	     12.47497748	     -7.83624188	     -9.19088396	    -10.21101838	      9.40028526	      3.94501895	      1.41283113	      0.58499092	      8.81671016
      4.29000000	     -0.03280969	     -9.70906673	     78.48054185	      0.33643023	      0.88170265	     -0.23725012	     13.42996507	     -0.09961178	      2.26091489	    -12.04068093	     11.61986206	     -1.13835826	     11.85942844	     -7.72773703	     -9.53937995	     -9.29688436	      9.30861318	      4.09284983	      1.59086115	      0.59348162	      8.71265723
      4.30000000	     -0.00769666	     -9.71803404	     78.30249117	      0.33557642	      0.88161985	     -0.23889420	     13.06479142	     -0.14906497	      2.45037403	    -11.52320277	     11.56482544	     -1.04080562	     11.24819741	     -7.63906690	     -9.86327591	     -8.44925020	      9.26345503	      4.25040782	      1.72478774	      0.61762205	      8.65067915
      4.31000000	      0.02979802	     -9.70500062	     78.11326685	      0.33477107	      0.88152256	     -0.24045077	     12.68821651	     -0.18639987	      2.64795989	    -11.01931719	     11.51934024	     -0.93790826	     10.67011570	     -7.56921725	    -10.15480425	     -7.70515884	      9.25771984	      4.40984483	      1.81537603	      0.64709124	      8.63577221
      4.32000000	      0.07774078	     -9.67503264	     77.93093662	      0.33397579	      0.88142544	     -0.24190153	     12.31385980	     -0.21793414	      2.84374966	    -10.54464858	     11.48154943	     -0.82777095	     10.15963924	     -7.51713184	    -10.39898339	     -7.10646660	      9.29889258	      4.56030625	      1.86547317	      0.68201413	      8.65346371
      4.33000000	      0.12956882	     -9.68754689	     77.74250852	      0.33322798	      0.88127568	     -0.24317314	     12.01884321	     -0.22953210	      3.06256515	    -10.10888046	     11.38485511	     -0.73950242	      9.80719644	     -7.49844749	    -10.61899134	     -6.69710409	      9.35701521	      4.64421760	      1.93967272	      0.72772803	      8.71161315
      4.34000000	      0.18414320	     -9.64378496	     77.56922271	      0.33250342	      0.88121821	     -0.24438400	     11.68084241	     -0.25383393	      3.22627185	     -9.69634525	     11.32556889	     -0.63032094	      9.49913579	     -7.48409026	    -10.79939249	     -6.46768574	      9.47340000	      4.72105015	      1.93615337	      0.75465047	      8.82584674
      4.35000000	      0.22826327	     -9.62612315	     77.41731745	      0.33177078	      0.88115332	     -0.24541658	     11.41459215	     -0.28252236	      3.37749292	     -9.34110195	     11.26480802	     -0.52695498	      9.34271687	     -7.47771379	    -10.90824044	     -6.42897454	      9.62191387	      4.75295726	      1.93988025	      0.77215811	      8.95727627
      4.36000000	      0.26451061	     -9.61830601	     77.27817642	      0.33104606	      0.88111415	     -0.24630947	     11.19753370	     -0.31508707	      3.51519050	     -9.03645567	     11.19604011	     -0.42855612	      9.29302213	     -7.47637550	    -10.98350412	     -6.53789998	      9.79056046	      4.74509841	      1.93606642	      0.78269861	      9.10374868
      4.37000000	      0.29961476	     -9.61790353	     77.14881242	      0.33034441	      0.88111268	     -0.24710938	     11.01368450	     -0.34389101	      3.63461736	     -8.76567994	     11.11903476	     -0.32384228	      9.31956901	     -7.48330481	    -11.03566954	     -6.75266764	      9.96936926	      4.70202912	      1.93028945	      0.79282058	      9.28675081
      4.38000000	      0.31275095	     -9.62672667	     77.03933552	      0.32964367	      0.88113110	     -0.24782891	     10.86448238	     -0.39322320	      3.74006075	     -8.52269085	     11.05491968	     -0.25257131	      9.40955093	     -7.47216142	    -11.03672568	     -7.03743894	     10.15028213	      4.65118207	      1.93319505	      0.77804476	      9.48074569
      4.39000000	      0.35378020	     -9.63726945	     76.92154178	      0.32901113	      0.88119962	     -0.24847197	     10.73599452	     -0.40358882	      3.84361571	     -8.31305864	     10.94481389	     -0.16259502	      9.52409672	     -7.50024805	    -11.07017229	     -7.37204824	     10.32884716	      4.56742615	      1.92411792	      0.79540342	      9.74190427
      4.40000000	      0.41810638	     -9.66708479	     76.79644570	      0.32844319	      0.88127612	     -0.24907968	     10.64548189	     -0.37678722	      3.93453839	     -8.14091918	     10.83021172	     -0.03078141	      9.64329152	     -7.56062306	    -11.11857877	     -7.68574987	     10.48280210	      4.43251462	      1.93241365	      0.84699817	     10.05630091
